<?xml version="1.0"?>
<svg xmlns="http://www.w3.org/2000/svg" xmlns:xlink="http://www.w3.org/1999/xlink" xmlns:svgjs="http://svgjs.com/svgjs" version="1.1" width="512" height="512" x="0" y="0" viewBox="0 0 28 30" style="enable-background:new 0 0 512 512" xml:space="preserve" class=""><g><g xmlns="http://www.w3.org/2000/svg" id="Local SEO"><path id="Union" clip-rule="evenodd" d="m8.1305 9.49706c-2.18165-4.36329.9912-9.49706 5.8695-9.49706s8.0511 5.13377 5.8695 9.49706l-.9953 1.99064 8.7355 6.7197c.2461.1893.3903.4821.3903.7926s-.1442.6033-.3903.7926l-13 10c-.3594.2765-.86.2765-1.2194 0l-13.000011-10c-.246085-.1893-.390289-.4821-.390289-.7926s.144204-.6033.390289-.7926l8.735541-6.7197zm6.7639 9.95014 3.0686-6.1371 7.3969 5.6899-11.3599 8.7384-11.35988-8.7384 7.39688-5.6899 3.0686 6.1371c.1694.3388.5156.5528.8944.5528s.725-.214.8944-.5528zm-.8944-17.4472c-3.3915 0-5.59739 3.56915-4.08065 6.60263l4.08065 8.16127 4.0807-8.16127c1.5167-3.03348-.6892-6.60263-4.0807-6.60263zm-1 5c0-.55228.4477-1 1-1s1 .44772 1 1-.4477 1-1 1-1-.44772-1-1zm1-3c-1.6569 0-3 1.34315-3 3s1.3431 3 3 3 3-1.34315 3-3-1.3431-3-3-3z" fill="#ffffff" fill-rule="evenodd" data-original="#000000" style="" class=""/></g></g></svg>
